<?xml version="1.0" encoding="UTF-8" standalone="no"?>
<!-- Generator: Adobe Illustrator 15.1.0, SVG Export Plug-In  -->

<svg
   xmlns:dc="http://purl.org/dc/elements/1.1/"
   xmlns:cc="http://creativecommons.org/ns#"
   xmlns:rdf="http://www.w3.org/1999/02/22-rdf-syntax-ns#"
   xmlns:svg="http://www.w3.org/2000/svg"
   xmlns="http://www.w3.org/2000/svg"
   xmlns:sodipodi="http://sodipodi.sourceforge.net/DTD/sodipodi-0.dtd"
   xmlns:inkscape="http://www.inkscape.org/namespaces/inkscape"
   version="1.1"
   x="0px"
   y="0px"
   width="16px"
   height="16px"
   viewBox="0 0 16 16"
   style="overflow:visible;enable-background:new 0 0 16 16;"
   xml:space="preserve"
   preserveAspectRatio="xMinYMid meet"
   id="svg3049"
   inkscape:version="0.48.4 r9939"
   sodipodi:docname="login.svg"><metadata
     id="metadata3057"><rdf:RDF><cc:Work
         rdf:about=""><dc:format>image/svg+xml</dc:format><dc:type
           rdf:resource="http://purl.org/dc/dcmitype/StillImage" /><dc:title></dc:title></cc:Work></rdf:RDF></metadata><sodipodi:namedview
     pagecolor="#ffffff"
     bordercolor="#666666"
     borderopacity="1"
     objecttolerance="10"
     gridtolerance="10"
     guidetolerance="10"
     inkscape:pageopacity="0"
     inkscape:pageshadow="2"
     inkscape:window-width="1920"
     inkscape:window-height="1006"
     id="namedview3055"
     showgrid="false"
     inkscape:zoom="22.627417"
     inkscape:cx="19.727331"
     inkscape:cy="10.078797"
     inkscape:window-x="0"
     inkscape:window-y="25"
     inkscape:window-maximized="1"
     inkscape:current-layer="g3152" /><defs
     id="defs3051" /><g
     style="overflow:visible"
     id="g3152"
     transform="matrix(-1,0,0,1,16,0)"><path
       id="path3146"
       style="fill:#989898"
       d="M 9,16 1,16 C 0.5,16 0,15.5 0,15 L 0,1 C 0,0.5 0.5,0 1,0 L 9,0 9,2 3,2 C 2.4,2 2,2.4 2,3 l 0,10 c 0,0.6 0.4,1 1,1 l 6,0 z m 7,-8.5 0,1 c 0,0.5 -0.5,1 -1,1 l -4.7,0 1.1,1.1 c 0.4,0.4 0.4,1 0,1.4 l -0.7,0.7 c -0.4,0.4 -1,0.4 -1.4,0 l -4,-4 C 4.9,8.3 4.9,7.7 5.3,7.3 l 4,-4 c 0.4,-0.4 1,-0.4 1.4,0 L 11.4,4 c 0.4,0.4 0.4,1 0,1.4 l -1,1 4.6,0 c 0.5,0.1 1,0.6 1,1.1 z" /></g></svg>