<?xml version="1.0" encoding="UTF-8" standalone="no"?>
<!-- Generator: Adobe Illustrator 15.1.0, SVG Export Plug-In  -->
<svg id="svg3049" xmlns:rdf="http://www.w3.org/1999/02/22-rdf-syntax-ns#" style="enable-background:new 0 0 16 16" xmlns="http://www.w3.org/2000/svg" xml:space="preserve" preserveAspectRatio="xMinYMid meet" height="16px" width="16px" version="1.1" y="0px" x="0px" xmlns:cc="http://creativecommons.org/ns#" xmlns:dc="http://purl.org/dc/elements/1.1/" viewBox="0 0 16 16"><g id="g3152" transform="matrix(-1,0,0,1,16,0)"><path id="path3146" fill="#989898" d="m9 16h-8c-0.5 0-1-0.5-1-1v-14c0-0.5 0.5-1 1-1h8v2h-6c-0.6 0-1 0.4-1 1v10c0 0.6 0.4 1 1 1h6zm7-8.5v1c0 0.5-0.5 1-1 1h-4.7l1.1 1.1c0.4 0.4 0.4 1 0 1.4l-0.7 0.7c-0.4 0.4-1 0.4-1.4 0l-4-4c-0.4-0.4-0.4-1 0-1.4l4-4c0.4-0.4 1-0.4 1.4 0l0.7 0.7c0.4 0.4 0.4 1 0 1.4l-1 1h4.6c0.5 0.1 1 0.6 1 1.1z"/></g></svg>
